<svg class="text-primary opacity-10" width="861" height="719" viewBox="0 0 861 719" fill="#162021" xmlns="http://www.w3.org/2000/svg">
    <path d="M25.1985 361.161C26.6142 363.592 28.4042 365.854 30.3902 367.846L115.89 453.613C117.366 455.093 119.008 456.457 120.69 457.697C220.882 531.542 166.267 694.09 321.314 716.256C481 739.09 730.799 588.084 806.496 453.151C844.188 385.962 885.87 273.92 840.453 199.651C808.854 147.97 742.627 142.437 686.285 142.442C616.832 142.453 556.116 167.459 491.294 135.468C449.5 114.831 426.769 82.5406 392.702 51.7928C206.459 -116.148 -88.0611 166.69 25.1985 361.161Z"></path>
</svg>